<?xml version="1.0" encoding="UTF-8" standalone="no"?>
<!-- Created with Inkscape (http://www.inkscape.org/) -->

<svg
   xmlns:dc="http://purl.org/dc/elements/1.1/"
   xmlns:cc="http://creativecommons.org/ns#"
   xmlns:rdf="http://www.w3.org/1999/02/22-rdf-syntax-ns#"
   xmlns:svg="http://www.w3.org/2000/svg"
   xmlns="http://www.w3.org/2000/svg"
   version="1.1"
   width="68"
   height="50"
   id="svg3093">
  <defs
     id="defs3095" />
  <metadata
     id="metadata3098">
    <rdf:RDF>
      <cc:Work
         rdf:about="">
        <dc:format>image/svg+xml</dc:format>
        <dc:type
           rdf:resource="http://purl.org/dc/dcmitype/StillImage" />
        <dc:title></dc:title>
      </cc:Work>
    </rdf:RDF>
  </metadata>
  <g
     transform="translate(0.60826572,-178.31478)"
     id="layer1">
    <g
       transform="matrix(0.43417347,0,0,0.43503542,-505.63504,-853.73688)"
       id="g9281">
      <path
         d="m 1201.8567,2414.8357 c -8.1756,2.366 -12.7042,3.3334 -19.4595,8.4473 -4.7983,3.5356 -9.6436,9.5914 -9.6436,9.5914 0,0 7.6093,-3.885 13.9228,-5.274 6.3134,-1.3889 9.2303,-1.5444 11.206,-1.3812 0.3947,-3.6942 2.9637,-8.1415 3.9743,-11.3835 z"
         id="path9214"
         style="fill:#bee2e9;fill-opacity:1;stroke:none" />
      <path
         d="m 1250.8879,2372.4439 c -15.5276,-0.1726 -30.1436,8.1194 -40.3572,19.3942 -11.4542,14.4028 -15.9389,33.8235 -12.5697,51.8646 2.1612,14.6533 12.0306,27.1756 23.9366,35.4569 8.7491,5.574 19.2176,8.055 29.5254,8.0681 -11.946,-0.7885 -25.0548,-4.3892 -32.5107,-14.4447 -5.2614,-8.4989 -3.8259,-20.5968 3.6711,-27.4113 11.5311,-12.2673 27.7806,-17.6581 42.9395,-23.8552 9.1211,-3.7288 20.1062,-9.8732 25.5666,-19.5686 1.6358,-2.9043 3.4911,-9.1474 3.4518,-13.0003 -10.9769,-12.2918 -28.1389,-16.7485 -43.6534,-16.5037 z"
         id="path2998"
         style="fill:#19b5fe;fill-opacity:1;stroke:none" />
      <path
         d="m 1239.6689,2388.5492 c 0,0 -5.2075,9.9954 -10.9407,14.8565 -3.9194,3.3232 -7.2441,5.6193 -14.301,8.2107 -6.3096,2.3169 -15.5619,4.0756 -15.5619,4.0756 0,0 1.5842,-6.7595 3.1467,-7.6971 4.1229,-2.4738 37.6569,-19.4457 37.6569,-19.4457 z"
         id="path9200"
         style="fill:#1e8bc3;fill-opacity:1;stroke:none" />
      <path
         d="m 1239.6977,2388.6105 c -4.2251,6.4386 -9.4179,12.4515 -16.2232,16.2437 -6.8468,4.1356 -14.7144,6.3819 -22.6752,6.8971 -10.3555,1.2613 -20.8905,4.0547 -29.3003,10.492 -2.6728,1.9229 -5.2552,3.9757 -7.6941,6.1887 4.1385,-7.7707 8.5414,-15.6044 14.7671,-21.9172 7.8647,-7.3589 17.8177,-12.3857 28.2288,-14.9957 10.8104,-2.2569 21.9274,-2.13 32.8969,-2.9086 z"
         id="path9198"
         style="fill:#815cb7;fill-opacity:1;stroke:none" />
      <path
         d="m 1234.9699,2433.7291 c -5,5 -5.6441,6.4303 -7.1717,11.1314 -2.0914,6.4368 -1.1607,15.9822 -1.1607,15.9822 0,0 -2.2086,-2.1248 -3.9384,-8.4506 -1.3292,-4.8604 -1.2126,-8.6935 -1.2126,-8.6935 0,0 1.5624,-2.6927 5.5803,-5.6391 4.0178,-2.9465 7.9031,-4.3304 7.9031,-4.3304 z"
         id="path9226"
         style="fill:#bee2e9;fill-opacity:1;stroke:none" />
      <path
         d="m 1272.1508,2419.4314 c -0.045,5.0892 0.2694,7.3232 -0.1787,13.4694 -0.4206,5.7686 -2.5892,10.2806 -2.5892,10.2806 0,0 0.089,-4.643 -0.625,-8.3929 -0.8579,-4.504 -5.0446,-11.0153 -5.0446,-11.0153 0,0 2.7869,-0.8671 4.0848,-1.5193 1.5454,-0.7766 4.3527,-2.8225 4.3527,-2.8225 z"
         id="path9240"
         style="fill:#815cb7;fill-opacity:1;stroke:none" />
      <g
         transform="translate(-4.1964366,-0.31486783)"
         id="g9275"
         style="fill:#2f4b68;fill-opacity:1">
        <path
           d="m 1244.8721,2450.3666 0,-10.7663 5.5358,0 0,10.7663 9.0178,0 0,5.177 -9.0178,0 c 0,0 0,22.8187 0,25.5168 0,2.4138 0.3752,3.1344 1.3179,4.302 0.9364,1.1598 1.7224,1.6014 3.9053,2.1851 -2.6637,0 -4.1708,-0.1404 -4.6628,-0.238 -1.5522,-0.308 -3.1344,-1.0656 -3.9217,-1.8529 -0.7874,-0.7873 -2.0985,-2.066 -2.0985,-4.4282 0,-2.3622 0.1026,-25.4853 0.1026,-25.4853 l -7.4107,0 0,-5.177 z"
           id="path9260"
           style="fill:#2f4b68;fill-opacity:1;stroke:none" />
        <path
           d="m 1283.5738,2487.5112 c 0,0 -0.013,-25.7254 -0.013,-26.5866 0,-2.2423 0.5227,-4.76 1.8602,-6.5753 1.3375,-1.8155 4.3698,-3.8459 8.15,-3.8459 3.7803,0 6.5283,1.5539 7.9632,3.338 1.4349,1.7842 1.8236,4.7419 1.8236,6.9919 0,2.2499 0,26.6779 0,26.6779 l -5.1332,0 c 0,0 0,-28.4503 0,-29.3744 0,-0.9245 -0.4064,-2.7278 -1.0435,-3.3483 -0.7423,-0.7234 -1.6757,-1.4509 -3.6789,-1.4509 -2.0032,0 -2.8159,0.8841 -3.4082,1.4211 -0.4487,0.4064 -1.123,1.8058 -1.123,3.2381 0,1.4326 -0.1991,29.5144 -0.1991,29.5144 z"
           id="path9268"
           style="fill:#2f4b68;fill-opacity:1;stroke:none" />
        <path
           d="m 1261.5913,2450.5034 c 0,0 -0.013,24.3513 -0.013,25.3172 0,2.5153 0.3964,4.7716 1.8602,7.3765 1.4638,2.6048 4.3028,4.3141 8.083,4.3141 3.7803,0 6.911,-1.8062 8.0302,-3.7447 1.1193,-1.9386 1.8236,-3.9307 1.8236,-7.8435 0,-3.9128 0,-25.4196 0,-25.4196 l -5.1332,0 c 0,0 0,28.0098 0,29.0468 0,1.037 -0.4064,3.0596 -1.0435,3.756 -0.7423,0.8113 -1.6757,1.6276 -3.6789,1.6276 -2.0032,0 -2.8159,-0.9918 -3.4082,-1.5941 -0.4487,-0.4561 -1.123,-2.0259 -1.123,-3.6327 0,-1.6069 -0.1991,-29.2036 -0.1991,-29.2036 z"
           id="path9262"
           style="fill:#2f4b68;fill-opacity:1;stroke:none" />
        <path
           d="m 1314.2309,2450.0827 c -2.0237,0 -4.3785,0.092 -6.1875,1.5 -1.8089,1.4078 -1.9687,3.6875 -1.9687,3.6875 0,0 1.775,-1.4775 2.5625,-1.8437 1.6323,-0.759 3.1978,-0.75 5.2812,-0.75 1.5066,0.02 2.898,-0.02 4.6563,1.3437 0.9905,0.849 1.0937,1.2329 1.0937,2.9375 l 0,7.8438 -7.0312,0 c -2.6079,0 -4.4339,1.4339 -5.5625,2.5625 -1.1286,1.1286 -2.125,3.0834 -2.125,7.2187 l 0,5.125 c 0,3.5306 0.554,4.5319 1.25,5.8125 0.7892,1.4521 2.8986,2 3.6562,2 l 6.5313,0 c 1.7046,0 3.3894,-0.7044 5.0625,-2.125 2.3097,-2.0141 2.5625,-4.9584 2.5625,-7.9687 l 0,-19.5313 c 0,-2.1562 0.062,-3.3758 -2,-5.4375 -2.0617,-2.0616 -4.9274,-2.375 -7.7813,-2.375 z m 5.4375,16.1563 c 0,0 0,10.8326 0,13.0937 0,2.2612 -0.5562,2.7438 -1.3125,3.5 -0.7562,0.7563 -2.1339,0.9063 -3.875,0.9063 -1.741,0 -2.7373,-0.05 -3.8437,-1.1563 -1.1065,-1.1064 -0.9688,-2.7723 -0.9688,-5.0937 -0.01,-2.6305 -0.3646,-5.3477 0.5938,-7.5938 0.9584,-2.246 2.0398,-2.7965 3,-3.125 1.0401,-0.3557 2.1175,-0.4606 6.4062,-0.5312 z"
           id="path9270"
           style="fill:#2f4b68;fill-opacity:1;stroke:none" />
      </g>
    </g>
    <path
       d="m 235,31.826468 a 12.142858,11.607142 0 1 1 -24.28571,0 12.142858,11.607142 0 1 1 24.28571,0 z"
       transform="matrix(0.15248372,0,0,0.15248372,12.912737,180.04547)"
       id="path5116"
       style="fill:#ffffff;fill-opacity:1;stroke:none" />
  </g>
</svg>
